{"accessors":[{"bufferView":0,"byteOffset":0,"componentType":5126,"count":36,"max":[0.195068359375,3.08551025390625,6.0],"min":[-0.195068359375,-3.08551025390625,-6.0],"normalized":false,"type":"VEC3"},{"bufferView":1,"byteOffset":0,"componentType":5126,"count":36,"max":[0.0,0.0,0.0000763009302318096,-1.0],"min":[-1.0,-1.0,-1.0,-1.0],"normalized":false,"type":"VEC4"},{"bufferView":2,"byteOffset":0,"componentType":5126,"count":36,"max":[1.0,1.0,1.0],"min":[-1.0,-1.0,-1.0],"normalized":false,"type":"VEC3"},{"bufferView":3,"byteOffset":0,"componentType":5126,"count":36,"max":[1.0,1.0],"min":[0.0,0.0],"normalized":false,"type":"VEC2"},{"bufferView":4,"byteOffset":0,"componentType":5123,"count":36,"max":[35.0],"min":[0.0],"normalized":false,"type":"SCALAR"},{"bufferView":5,"byteOffset":0,"componentType":5126,"count":36,"max":[0.195068359375,3.08551025390625,14.4892578125],"min":[-0.195068359375,-3.08551025390625,-14.4892578125],"normalized":false,"type":"VEC3"},{"bufferView":6,"byteOffset":0,"componentType":5126,"count":36,"max":[0.0,0.0,0.0000763009302318096,-1.0],"min":[-1.0,-1.0,-1.0,-1.0],"normalized":false,"type":"VEC4"},{"bufferView":7,"byteOffset":0,"componentType":5126,"count":36,"max":[1.0,1.0,1.0],"min":[-1.0,-1.0,-1.0],"normalized":false,"type":"VEC3"},{"bufferView":8,"byteOffset":0,"componentType":5126,"count":36,"max":[1.0,1.0],"min":[0.0,0.0],"normalized":false,"type":"VEC2"},{"bufferView":9,"byteOffset":0,"componentType":5123,"count":36,"max":[35.0],"min":[0.0],"normalized":false,"type":"SCALAR"},{"bufferView":10,"byteOffset":0,"componentType":5126,"count":36,"max":[0.195068359375,3.08551025390625,2.0],"min":[-0.195068359375,-3.08551025390625,-2.0],"normalized":false,"type":"VEC3"},{"bufferView":11,"byteOffset":0,"componentType":5126,"count":36,"max":[0.0,0.0,0.0000763009302318096,-1.0],"min":[-1.0,-1.0,-1.0,-1.0],"normalized":false,"type":"VEC4"},{"bufferView":12,"byteOffset":0,"componentType":5126,"count":36,"max":[1.0,1.0,1.0],"min":[-1.0,-1.0,-1.0],"normalized":false,"type":"VEC3"},{"bufferView":13,"byteOffset":0,"componentType":5126,"count":36,"max":[1.0,1.0],"min":[0.0,0.0],"normalized":false,"type":"VEC2"},{"bufferView":14,"byteOffset":0,"componentType":5123,"count":36,"max":[35.0],"min":[0.0],"normalized":false,"type":"SCALAR"},{"bufferView":15,"byteOffset":0,"componentType":5126,"count":36,"max":[0.195068359375,3.08551025390625,8.912353515625],"min":[-0.195068359375,-3.08551025390625,-8.912353515625],"normalized":false,"type":"VEC3"},{"bufferView":16,"byteOffset":0,"componentType":5126,"count":36,"max":[0.0,0.0,0.0000763009302318096,-1.0],"min":[-1.0,-1.0,-1.0,-1.0],"normalized":false,"type":"VEC4"},{"bufferView":17,"byteOffset":0,"componentType":5126,"count":36,"max":[1.0,1.0,1.0],"min":[-1.0,-1.0,-1.0],"normalized":false,"type":"VEC3"},{"bufferView":18,"byteOffset":0,"componentType":5126,"count":36,"max":[1.0,1.0],"min":[0.0,0.0],"normalized":false,"type":"VEC2"},{"bufferView":19,"byteOffset":0,"componentType":5123,"count":36,"max":[35.0],"min":[0.0],"normalized":false,"type":"SCALAR"},{"bufferView":20,"byteOffset":0,"componentType":5126,"count":36,"max":[0.195068359375,3.08551025390625,2.0],"min":[-0.195068359375,-3.08551025390625,-2.0],"normalized":false,"type":"VEC3"},{"bufferView":21,"byteOffset":0,"componentType":5126,"count":36,"max":[0.0,0.0,0.0000763009302318096,-1.0],"min":[-1.0,-1.0,-1.0,-1.0],"normalized":false,"type":"VEC4"},{"bufferView":22,"byteOffset":0,"componentType":5126,"count":36,"max":[1.0,1.0,1.0],"min":[-1.0,-1.0,-1.0],"normalized":false,"type":"VEC3"},{"bufferView":23,"byteOffset":0,"componentType":5126,"count":36,"max":[1.0,1.0],"min":[0.0,0.0],"normalized":false,"type":"VEC2"},{"bufferView":24,"byteOffset":0,"componentType":5123,"count":36,"max":[35.0],"min":[0.0],"normalized":false,"type":"SCALAR"}],"asset":{"generator":"Godot Engine v4.4.1.stable.official@49a5bc7b616bd04689a2c89e89bda41f50241464","version":"2.0"},"bufferViews":[{"buffer":0,"byteLength":432,"byteOffset":0,"byteStride":12,"target":34962},{"buffer":0,"byteLength":576,"byteOffset":432,"byteStride":16,"target":34962},{"buffer":0,"byteLength":432,"byteOffset":1008,"byteStride":12,"target":34962},{"buffer":0,"byteLength":288,"byteOffset":1440,"byteStride":8,"target":34962},{"buffer":0,"byteLength":72,"byteOffset":1728,"target":34963},{"buffer":0,"byteLength":432,"byteOffset":1800,"byteStride":12,"target":34962},{"buffer":0,"byteLength":576,"byteOffset":2232,"byteStride":16,"target":34962},{"buffer":0,"byteLength":432,"byteOffset":2808,"byteStride":12,"target":34962},{"buffer":0,"byteLength":288,"byteOffset":3240,"byteStride":8,"target":34962},{"buffer":0,"byteLength":72,"byteOffset":3528,"target":34963},{"buffer":0,"byteLength":432,"byteOffset":3600,"byteStride":12,"target":34962},{"buffer":0,"byteLength":576,"byteOffset":4032,"byteStride":16,"target":34962},{"buffer":0,"byteLength":432,"byteOffset":4608,"byteStride":12,"target":34962},{"buffer":0,"byteLength":288,"byteOffset":5040,"byteStride":8,"target":34962},{"buffer":0,"byteLength":72,"byteOffset":5328,"target":34963},{"buffer":0,"byteLength":432,"byteOffset":5400,"byteStride":12,"target":34962},{"buffer":0,"byteLength":576,"byteOffset":5832,"byteStride":16,"target":34962},{"buffer":0,"byteLength":432,"byteOffset":6408,"byteStride":12,"target":34962},{"buffer":0,"byteLength":288,"byteOffset":6840,"byteStride":8,"target":34962},{"buffer":0,"byteLength":72,"byteOffset":7128,"target":34963},{"buffer":0,"byteLength":432,"byteOffset":7200,"byteStride":12,"target":34962},{"buffer":0,"byteLength":576,"byteOffset":7632,"byteStride":16,"target":34962},{"buffer":0,"byteLength":432,"byteOffset":8208,"byteStride":12,"target":34962},{"buffer":0,"byteLength":288,"byteOffset":8640,"byteStride":8,"target":34962},{"buffer":0,"byteLength":72,"byteOffset":8928,"target":34963}],"buffers":[{"byteLength":9000,"uri":"laundromat0.bin"}],"extensionsUsed":["GODOT_single_root"],"materials":[{},{},{},{},{}],"meshes":[{"extras":{"targetNames":[]},"primitives":[{"attributes":{"NORMAL":2,"POSITION":0,"TANGENT":1,"TEXCOORD_0":3},"indices":4,"material":0,"mode":4}]},{"extras":{"targetNames":[]},"primitives":[{"attributes":{"NORMAL":7,"POSITION":5,"TANGENT":6,"TEXCOORD_0":8},"indices":9,"material":1,"mode":4}]},{"extras":{"targetNames":[]},"primitives":[{"attributes":{"NORMAL":12,"POSITION":10,"TANGENT":11,"TEXCOORD_0":13},"indices":14,"material":2,"mode":4}]},{"extras":{"targetNames":[]},"primitives":[{"attributes":{"NORMAL":17,"POSITION":15,"TANGENT":16,"TEXCOORD_0":18},"indices":19,"material":3,"mode":4}]},{"extras":{"targetNames":[]},"primitives":[{"attributes":{"NORMAL":22,"POSITION":20,"TANGENT":21,"TEXCOORD_0":23},"indices":24,"material":4,"mode":4}]}],"nodes":[{"children":[1,2,3,4,5],"name":"laundromat"},{"mesh":0,"name":"CSGBox3D2","translation":[8.64150238037109,-1.19420051574707,24.60888671875]},{"mesh":1,"name":"CSGBox3D23","translation":[8.64150238037109,-1.19420051574707,-8.88037109375]},{"mesh":2,"name":"CSGBox3D32","rotation":[0.0,0.70710676908493,0.0,0.70710676908493],"translation":[-6.86923980712891,-1.19420051574707,-22.88037109375]},{"mesh":3,"name":"CSGBox3D52","rotation":[0.0,0.70710676908493,0.0,0.70710676908493],"translation":[0.0431137084960938,-1.19420051574707,30.11962890625]},{"mesh":4,"name":"CSGBox3D42","rotation":[0.0,0.70710676908493,0.0,0.70710676908493],"translation":[7.13076019287109,-1.19420051574707,-22.88037109375]}],"scene":0,"scenes":[{"nodes":[0]}]}